# xmcd
#
# Track frame offsets:
#	150
#	2862
#	18542
#	30771
#	38783
#	51267
#	57861
#	71493
#	84817
#	98265
#	111841
#
# Disc length: 1699 seconds
# Revision: 0
# Processed by: cddbd v1.5.2PL0 Copyright (c) Steve Scherf et al.
# Submitted via: dBpowerAMP V12.0
#
DISCID=7606a10b
DTITLE=Ginger St. James and The Grinders - Diesel and Peas
DYEAR=2015
DGENRE=Canadian
TTITLE0=Intro
TTITLE1=Please Mr. Driver
TTITLE2=Country Bumpkin
TTITLE3=My Honey
TTITLE4=Lullaby
TTITLE5=Slim's Reel
TTITLE6=Salvation
TTITLE7=Beer Bottle Pockets
TTITLE8=Zipper
TTITLE9=Lonely Cryin Blues
TTITLE10=Furious
EXTD=
EXTT0=
EXTT1=
EXTT2=
EXTT3=
EXTT4=
EXTT5=
EXTT6=
EXTT7=
EXTT8=
EXTT9=
EXTT10=
PLAYORDER=
